<svg width="120" height="40" viewBox="0 0 120 40" fill="none" xmlns="http://www.w3.org/2000/svg">
  <!-- Background circle -->
  <circle cx="20" cy="20" r="18" fill="#2d5a27" opacity="0.1"/>
  
  <!-- Leaf icon -->
  <path d="M12 20c0-4.4 3.6-8 8-8s8 3.6 8 8c0 2.2-0.9 4.2-2.3 5.7l-2.7-2.7c0.6-0.6 1-1.4 1-2.3 0-1.7-1.3-3-3-3s-3 1.3-3 3c0 0.8 0.3 1.6 0.9 2.2l-2.7 2.7C12.9 24.2 12 22.2 12 20z" fill="#2d5a27"/>
  <path d="M20 12c-2.2 0-4.2 0.9-5.7 2.3l2.7 2.7c0.6-0.6 1.4-1 2.3-1 1.7 0 3 1.3 3 3s-1.3 3-3 3c-0.8 0-1.6-0.3-2.2-0.9l-2.7 2.7C15.8 27.1 17.8 28 20 28c4.4 0 8-3.6 8-8s-3.6-8-8-8z" fill="#4a7c59"/>
  
  <!-- Text -->
  <text x="45" y="16" font-family="Inter, sans-serif" font-size="14" font-weight="700" fill="#2d5a27">EcoLearn</text>
  <text x="45" y="30" font-family="Inter, sans-serif" font-size="8" font-weight="400" fill="#6b7280">Green Computing</text>
</svg>
